<?xml version="1.0" standalone="no"?>
<!DOCTYPE svg PUBLIC "-//W3C//DTD SVG 20010904//EN"
 "http://www.w3.org/TR/2001/REC-SVG-20010904/DTD/svg10.dtd">
<svg version="1.0" xmlns="http://www.w3.org/2000/svg"
 width="512.000000pt" height="512.000000pt" viewBox="0 0 512.000000 512.000000"
 preserveAspectRatio="xMidYMid meet">
<metadata>
Created by potrace 1.11, written by Peter Selinger 2001-2013
</metadata>
<g transform="translate(0.000000,512.000000) scale(0.100000,-0.100000)"
fill="#000000" stroke="none">
<path d="M670 5081 l-31 -31 3 -149 c3 -130 5 -152 22 -170 25 -27 79 -28 105
-2 27 27 33 69 29 209 -3 133 -12 153 -70 167 -22 6 -33 1 -58 -24z"/>
<path d="M1293 5100 c-37 -15 -43 -42 -43 -197 0 -136 2 -151 20 -171 28 -30
80 -29 108 1 21 22 22 33 22 169 0 81 -3 154 -6 163 -6 15 -54 46 -71 44 -4 0
-18 -4 -30 -9z"/>
<path d="M1880 5081 l-31 -31 3 -149 c3 -130 5 -152 22 -170 25 -27 79 -28
105 -2 27 27 33 69 29 209 -3 133 -12 153 -70 167 -22 6 -33 1 -58 -24z"/>
<path d="M2503 5100 c-37 -15 -43 -42 -43 -198 0 -142 1 -149 23 -170 31 -29
77 -29 105 1 21 22 22 33 22 169 0 81 -3 154 -6 163 -6 15 -54 46 -71 44 -4 0
-18 -4 -30 -9z"/>
<path d="M3094 5087 l-29 -25 0 -155 c0 -138 2 -157 19 -176 25 -27 79 -28
105 -2 27 27 33 69 29 209 -3 106 -6 124 -23 141 -34 33 -68 36 -101 8z"/>
<path d="M88 4510 c-20 -11 -47 -34 -60 -52 l-23 -33 -3 -1798 c-2 -1997 -7
-1863 65 -1999 44 -84 103 -152 178 -203 l55 -38 0 -96 c0 -71 5 -106 19 -136
22 -48 70 -97 120 -122 34 -17 111 -18 1491 -18 l1455 0 41 22 c53 28 107 91
122 142 7 21 12 77 12 125 l0 86 43 26 c62 40 149 134 185 203 41 76 72 196
72 278 l0 63 38 0 c111 0 366 67 487 127 259 130 451 315 585 565 114 215 150
388 150 727 0 225 0 228 -23 249 -29 27 -80 29 -106 3 -16 -16 -19 -42 -24
-257 -6 -271 -14 -326 -63 -474 -148 -442 -513 -730 -996 -784 l-48 -6 0 99 0
98 53 7 c168 21 361 98 487 194 170 128 296 326 347 542 16 67 18 135 18 665
l0 590 -31 65 c-39 83 -101 145 -184 184 l-65 31 -312 3 -313 3 0 99 0 100
298 0 c329 0 396 -9 505 -67 74 -39 198 -165 235 -238 56 -113 64 -152 69
-383 6 -212 6 -213 31 -232 34 -27 68 -25 98 5 l26 26 -4 227 c-4 211 -6 233
-30 304 -41 123 -92 204 -187 298 -98 98 -200 157 -328 192 -70 19 -112 21
-395 26 l-318 4 0 222 c0 210 -1 224 -22 266 -17 33 -35 51 -68 68 l-44 22
-819 0 -818 0 -24 -25 c-32 -31 -33 -74 -2 -103 l23 -22 800 0 c609 0 803 -3
812 -12 14 -14 17 -3409 3 -3520 -22 -170 -136 -304 -300 -354 -69 -21 -2873
-21 -2942 0 -103 31 -183 90 -236 173 -73 115 -67 -51 -70 1924 l-3 1776 97 6
c54 4 425 7 825 7 l727 0 21 22 c27 30 26 73 -5 103 l-24 25 -833 0 c-804 -1
-834 -2 -870 -20z m4357 -1081 c63 -17 112 -56 140 -112 l25 -51 0 -556 c0
-531 -1 -560 -21 -639 -75 -297 -285 -508 -579 -582 -41 -10 -92 -19 -112 -19
l-38 0 0 985 0 985 273 0 c163 0 288 -4 312 -11z m-1038 -3158 c-4 -36 -13
-61 -28 -77 l-22 -24 -1427 0 -1427 0 -23 25 c-17 18 -25 40 -28 77 l-4 53
1482 0 1482 0 -5 -54z"/>
<path d="M2154 3225 c-30 -15 -59 -39 -74 -63 -14 -21 -153 -333 -310 -692
-239 -549 -285 -649 -290 -624 -12 54 -32 78 -246 294 l-214 215 220 220 c201
200 222 225 236 271 25 86 -7 172 -84 224 -49 34 -137 39 -194 11 -29 -14
-141 -119 -345 -323 -430 -433 -430 -384 -5 -811 152 -153 296 -292 319 -308
56 -39 126 -48 187 -25 24 9 50 24 56 32 20 23 27 17 33 -27 15 -111 135 -189
247 -159 95 26 93 22 406 740 157 360 287 657 289 659 2 2 11 -14 20 -35 10
-26 88 -111 233 -256 l217 -218 -221 -222 c-240 -242 -252 -258 -241 -349 8
-67 48 -123 110 -154 56 -27 91 -31 152 -14 33 9 91 61 344 312 199 198 310
316 322 342 24 52 24 126 0 173 -29 55 -607 628 -653 647 -55 22 -117 19 -174
-10 -27 -14 -50 -25 -51 -25 -2 0 -3 11 -3 24 0 61 -54 132 -122 160 -53 23
-107 20 -164 -9z"/>
</g>
</svg>
